# xmcd
#
# Track frame offsets:
#	150
#	27187
#	51530
#	91796
#	113537
#	143920
#	180084
#	208435
#	245573
#	277770
#	317097
#
# Disc length: 4556 seconds
#
# Revision: 0
# Processed by: cddbd v1.5.2PL0 Copyright (c) Steve Scherf et al.
# Submitted via: EZCDAudioConverter 2.1.7.1
#
DISCID=9311ca0b
DTITLE=Steve Winwood - Greatest Hits Live 1/2
DYEAR=1900
DGENRE=
TTITLE0=I'm A Man
TTITLE1=Them Changes
TTITLE2=Fly
TTITLE3=Can't Find My Way Home
TTITLE4=Had To Cry Today
TTITLE5=Low Spark Of High Heeled Boys
TTITLE6=Empty Pages
TTITLE7=Back In The High Life Again
TTITLE8=Higher Love
TTITLE9=Dear Mr. Fantasy
TTITLE10=Gime Some Lovin'
EXTD=
EXTT0=
EXTT1=
EXTT2=
EXTT3=
EXTT4=
EXTT5=
EXTT6=
EXTT7=
EXTT8=
EXTT9=
EXTT10=
PLAYORDER=
